<svg width="22" height="22" viewBox="0 0 22 22" fill="none" xmlns="http://www.w3.org/2000/svg">
<path d="M7 12.5H15M7 7.5H11M5.099 18C3.79967 17.872 2.824 17.4813 2.172 16.828C1 15.657 1 13.771 1 10V9.5C1 5.729 1 3.843 2.172 2.672C3.344 1.501 5.229 1.5 9 1.5H13C16.771 1.5 18.657 1.5 19.828 2.672C20.999 3.844 21 5.729 21 9.5V10C21 13.771 21 15.657 19.828 16.828C18.656 17.999 16.771 18 13 18C12.44 18.012 11.993 18.055 11.555 18.155C10.356 18.431 9.246 19.045 8.15 19.579C6.587 20.341 5.806 20.722 5.316 20.365C4.378 19.667 5.295 17.502 5.5 16.5" stroke="#C9CCCF" stroke-width="1.5" stroke-linecap="round" stroke-linejoin="round"/>
</svg>
