<svg width="24" height="24" viewBox="0 0 24 24" fill="none" xmlns="http://www.w3.org/2000/svg">
<path fill-rule="evenodd" clip-rule="evenodd" d="M1.7568 1.7568C0 3.516 0 6.3432 0 12C0 17.6568 0 20.4852 1.7568 22.242C3.516 24 6.3432 24 12 24C17.6568 24 20.4852 24 22.242 22.242C24 20.4864 24 17.6568 24 12C24 6.3432 24 3.5148 22.242 1.7568C20.4864 0 17.6568 0 12 0C6.3432 0 3.5148 0 1.7568 1.7568ZM12 13.2C12.3183 13.2 12.6235 13.0736 12.8485 12.8485C13.0736 12.6235 13.2 12.3183 13.2 12C13.2 11.6817 13.0736 11.3765 12.8485 11.1515C12.6235 10.9264 12.3183 10.8 12 10.8C11.6817 10.8 11.3765 10.9264 11.1515 11.1515C10.9264 11.3765 10.8 11.6817 10.8 12C10.8 12.3183 10.9264 12.6235 11.1515 12.8485C11.3765 13.0736 11.6817 13.2 12 13.2ZM8.4 12C8.4 12.3183 8.27357 12.6235 8.04853 12.8485C7.82348 13.0736 7.51826 13.2 7.2 13.2C6.88174 13.2 6.57652 13.0736 6.35147 12.8485C6.12643 12.6235 6 12.3183 6 12C6 11.6817 6.12643 11.3765 6.35147 11.1515C6.57652 10.9264 6.88174 10.8 7.2 10.8C7.51826 10.8 7.82348 10.9264 8.04853 11.1515C8.27357 11.3765 8.4 11.6817 8.4 12ZM16.8 13.2C17.1183 13.2 17.4235 13.0736 17.6485 12.8485C17.8736 12.6235 18 12.3183 18 12C18 11.6817 17.8736 11.3765 17.6485 11.1515C17.4235 10.9264 17.1183 10.8 16.8 10.8C16.4817 10.8 16.1765 10.9264 15.9515 11.1515C15.7264 11.3765 15.6 11.6817 15.6 12C15.6 12.3183 15.7264 12.6235 15.9515 12.8485C16.1765 13.0736 16.4817 13.2 16.8 13.2Z" fill="#484848"/>
</svg>
