<svg width="22" height="20" viewBox="0 0 22 20" fill="currentColor" xmlns="http://www.w3.org/2000/svg">
    <path d="M6.66248 17.3826C3.62125 14.8686 0.0493164 11.9166 0.0493164 6.7991C0.0493164 1.14954 6.00614 -2.85731 10.8799 2.575L13.046 4.89617C13.2 5.05007 13.4037 5.13386 13.6141 5.12988C13.8246 5.1259 14.0253 5.03445 14.1742 4.87482C14.323 4.71518 14.4082 4.49981 14.412 4.27408C14.4157 4.04835 14.3376 3.82989 14.1941 3.66472L12.1038 1.41907C16.6949 -2.18582 21.7105 1.6154 21.7105 6.7991C21.7105 11.9166 18.1386 14.8686 15.0973 17.3826C14.7796 17.6436 14.4706 17.9007 14.1702 18.154C13.046 19.1043 11.963 20 10.8799 20C9.79685 20 8.71379 19.1055 7.58958 18.1528C7.28849 17.9003 6.97945 17.6436 6.66248 17.3826Z" fill="#49E2C1"/>
</svg>
