<svg width="24" height="22" viewBox="0 0 24 22" fill="none" xmlns="http://www.w3.org/2000/svg">
<path d="M7.48491 18.7686L7.48417 18.768L7.43158 18.7245C4.42521 16.2395 0.689575 13.1517 0.689575 7.7991C0.689575 4.80629 2.26783 2.20484 4.55709 1.08241C6.88809 -0.0604913 9.82925 0.386705 12.389 3.23743L14.5446 5.54726C14.6052 5.6055 14.6773 5.63125 14.7449 5.62997C14.8145 5.62865 14.8884 5.59857 14.9487 5.53386C15.01 5.46808 15.0505 5.37257 15.0523 5.26585C15.054 5.16173 15.0185 5.06626 14.9612 4.99772L12.878 2.75974L12.5075 2.36166L12.9352 2.02581C15.3905 0.0979925 18.0217 0.125821 20.0349 1.38992C22.0213 2.63712 23.3508 5.05097 23.3508 7.7991C23.3508 13.1517 19.6151 16.2395 16.6088 18.7245L16.5562 18.768L16.555 18.7689C16.2389 19.0286 15.9316 19.2843 15.633 19.5361C15.6329 19.5362 15.6329 19.5362 15.6328 19.5362L15.3105 19.154C14.1863 20.1043 13.1032 21 12.0202 21C10.9371 21 9.85405 20.1055 8.72984 19.1528L7.48491 18.7686ZM7.48491 18.7686C7.80038 19.0283 8.10788 19.2838 8.40742 19.535L7.48491 18.7686Z" stroke="#49E2C1"/>
</svg>
