<svg width="24" height="24" viewBox="0 0 24 24" fill="none" xmlns="http://www.w3.org/2000/svg">
<path d="M1.43954 10.7564L10.2928 5.45951C10.5118 5.32625 10.7626 5.25425 11.019 5.25103C11.2754 5.24781 11.5279 5.3135 11.7502 5.44123C11.9914 5.58169 12.1911 5.78347 12.3291 6.0261C12.4671 6.26872 12.5384 6.54354 12.5358 6.82264V10.5281L21.007 5.45811C21.2261 5.32484 21.4769 5.25284 21.7332 5.24962C21.9896 5.24641 22.2421 5.3121 22.4644 5.43983C22.7056 5.58028 22.9053 5.78207 23.0433 6.02469C23.1813 6.26731 23.2526 6.54213 23.25 6.82123V17.1806C23.2527 17.4598 23.1815 17.7347 23.0435 17.9775C22.9055 18.2202 22.7057 18.422 22.4644 18.5625C22.2421 18.6902 21.9896 18.7559 21.7332 18.7527C21.4769 18.7495 21.2261 18.6775 21.007 18.5442L12.5358 13.4719V17.1787C12.5388 17.4582 12.4678 17.7336 12.3297 17.9766C12.1917 18.2197 11.9917 18.4219 11.7502 18.5625C11.5279 18.6902 11.2754 18.7559 11.019 18.7527C10.7626 18.7495 10.5118 18.6775 10.2928 18.5442L1.43954 13.2473C1.22908 13.1155 1.05556 12.9323 0.935277 12.715C0.814995 12.4978 0.751892 12.2535 0.751892 12.0051C0.751892 11.7568 0.814995 11.5125 0.935277 11.2952C1.05556 11.0779 1.22908 10.8948 1.43954 10.763V10.7564Z" fill="#CCCCCC"/>
</svg>
