<svg width="18" height="18" viewBox="0 0 18 18" fill="none" xmlns="http://www.w3.org/2000/svg">
<path fill-rule="evenodd" clip-rule="evenodd" d="M9.58801 2.02C10.4394 1.18534 11.5859 0.720446 12.7782 0.726374C13.9705 0.732302 15.1123 1.20857 15.9554 2.05166C16.7984 2.89475 17.2747 4.03652 17.2806 5.22882C17.2866 6.42112 16.8217 7.56757 15.987 8.419L13.713 10.693C13.2543 11.1519 12.7022 11.5068 12.0942 11.7336C11.4862 11.9604 10.8365 12.0538 10.1893 12.0074C9.54206 11.961 8.91236 11.776 8.34292 11.4648C7.77349 11.1537 7.27764 10.7237 6.88901 10.204C6.82733 10.1254 6.78199 10.0352 6.75566 9.93877C6.72932 9.84235 6.72253 9.74165 6.73567 9.64257C6.74881 9.54349 6.78161 9.44803 6.83217 9.36182C6.88272 9.2756 6.94999 9.20035 7.03004 9.1405C7.11008 9.08065 7.20128 9.0374 7.29828 9.0133C7.39527 8.98919 7.49611 8.98472 7.59486 9.00014C7.69361 9.01556 7.78828 9.05056 7.87331 9.10308C7.95834 9.15561 8.03202 9.2246 8.09001 9.306C8.3499 9.65328 8.68142 9.94062 9.06209 10.1486C9.44277 10.3565 9.86369 10.4802 10.2963 10.5112C10.729 10.5422 11.1633 10.4798 11.5697 10.3283C11.9761 10.1768 12.3452 9.93966 12.652 9.633L14.912 7.373C15.4515 6.80015 15.7466 6.03968 15.7347 5.25287C15.7229 4.46607 15.405 3.71483 14.8485 3.15848C14.2921 2.60213 13.5407 2.28443 12.7539 2.27277C11.9671 2.2611 11.2067 2.55639 10.634 3.096L9.34001 4.383C9.19891 4.5233 9.00786 4.60181 8.80889 4.60124C8.60991 4.60068 8.41931 4.5211 8.27901 4.38C8.13871 4.23891 8.0602 4.04786 8.06077 3.84888C8.06133 3.64991 8.14091 3.4593 8.28201 3.319L9.58801 2.02ZM5.90501 6.266C6.82141 5.92426 7.82387 5.88863 8.76223 6.16446C9.70058 6.44028 10.5243 7.01272 11.11 7.796C11.2237 7.95557 11.2704 8.15329 11.2402 8.34686C11.21 8.54044 11.1052 8.7145 10.9483 8.83182C10.7914 8.94914 10.5948 9.00041 10.4006 8.97465C10.2063 8.9489 10.0299 8.84816 9.90901 8.694C9.64932 8.34644 9.31788 8.05884 8.93719 7.85071C8.55651 7.64258 8.1355 7.5188 7.70275 7.48778C7.27 7.45676 6.83564 7.51923 6.42916 7.67094C6.02269 7.82264 5.65362 8.06004 5.34701 8.367L3.08701 10.627C2.5339 11.1971 2.22721 11.9618 2.23317 12.7561C2.23912 13.5504 2.55724 14.3105 3.11883 14.8722C3.68042 15.4339 4.44042 15.7522 5.2347 15.7583C6.02898 15.7645 6.7938 15.458 7.36401 14.905L8.65001 13.619C8.79139 13.4823 8.98081 13.4066 9.17746 13.4082C9.37411 13.4099 9.56226 13.4886 9.70138 13.6276C9.8405 13.7666 9.91947 13.9547 9.92127 14.1514C9.92307 14.348 9.84756 14.5375 9.71101 14.679L8.41101 15.979C7.55802 16.8053 6.41437 17.2631 5.22682 17.2537C4.03928 17.2444 2.90302 16.7685 2.0632 15.9288C1.22339 15.0891 0.747335 13.9529 0.737757 12.7654C0.72818 11.5778 1.18584 10.4341 2.01201 9.581L4.28601 7.307C4.74467 6.84754 5.29731 6.49275 5.90601 6.267" fill="#C9CCCF"/>
</svg>
