<svg width="24" height="24" viewBox="0 0 24 24" fill="none" xmlns="http://www.w3.org/2000/svg">
<path fill-rule="evenodd" clip-rule="evenodd" d="M2.25 5.25C2.25 4.45435 2.56607 3.69129 3.12868 3.12868C3.69129 2.56607 4.45435 2.25 5.25 2.25H7.5C8.29565 2.25 9.05871 2.56607 9.62132 3.12868C10.1839 3.69129 10.5 4.45435 10.5 5.25V18.75C10.5 19.5456 10.1839 20.3087 9.62132 20.8713C9.05871 21.4339 8.29565 21.75 7.5 21.75H5.25C4.45435 21.75 3.69129 21.4339 3.12868 20.8713C2.56607 20.3087 2.25 19.5456 2.25 18.75V5.25ZM13.5 5.25C13.5 4.45435 13.8161 3.69129 14.3787 3.12868C14.9413 2.56607 15.7044 2.25 16.5 2.25H18.75C19.5456 2.25 20.3087 2.56607 20.8713 3.12868C21.4339 3.69129 21.75 4.45435 21.75 5.25V18.75C21.75 19.5456 21.4339 20.3087 20.8713 20.8713C20.3087 21.4339 19.5456 21.75 18.75 21.75H16.5C15.7044 21.75 14.9413 21.4339 14.3787 20.8713C13.8161 20.3087 13.5 19.5456 13.5 18.75V5.25Z" fill="#CCCCCC"/>
</svg>
