<svg width="24" height="24" viewBox="0 0 24 24" fill="none" xmlns="http://www.w3.org/2000/svg">
<path fill-rule="evenodd" clip-rule="evenodd" d="M12 24C6.3432 24 3.5148 24 1.7568 22.242C0 20.4864 0 17.6568 0 12C0 6.3432 0 3.5148 1.7568 1.7568C3.516 0 6.3432 0 12 0C17.6568 0 20.4852 0 22.242 1.7568C24 3.516 24 6.3432 24 12C24 17.6568 24 20.4852 22.242 22.242C20.4864 24 17.6568 24 12 24ZM12 7.5C12.2387 7.5 12.4676 7.59482 12.6364 7.7636C12.8052 7.93239 12.9 8.16131 12.9 8.4V11.1H15.6C15.8387 11.1 16.0676 11.1948 16.2364 11.3636C16.4052 11.5324 16.5 11.7613 16.5 12C16.5 12.2387 16.4052 12.4676 16.2364 12.6364C16.0676 12.8052 15.8387 12.9 15.6 12.9H12.9V15.6C12.9 15.8387 12.8052 16.0676 12.6364 16.2364C12.4676 16.4052 12.2387 16.5 12 16.5C11.7613 16.5 11.5324 16.4052 11.3636 16.2364C11.1948 16.0676 11.1 15.8387 11.1 15.6V12.9H8.4C8.16131 12.9 7.93239 12.8052 7.7636 12.6364C7.59482 12.4676 7.5 12.2387 7.5 12C7.5 11.7613 7.59482 11.5324 7.7636 11.3636C7.93239 11.1948 8.16131 11.1 8.4 11.1H11.1V8.4C11.1 8.16131 11.1948 7.93239 11.3636 7.7636C11.5324 7.59482 11.7613 7.5 12 7.5Z" fill="#484848"/>
</svg>
