<svg width="24" height="24" viewBox="0 0 24 24" fill="none" xmlns="http://www.w3.org/2000/svg">
<path d="M22.5605 13.2436L13.7072 18.5405C13.4882 18.6738 13.2374 18.7458 12.981 18.749C12.7246 18.7522 12.4721 18.6865 12.2498 18.5588C12.0086 18.4183 11.8089 18.2165 11.6709 17.9739C11.5329 17.7313 11.4616 17.4565 11.4642 17.1774V13.4719L2.99296 18.5419C2.77394 18.6752 2.52314 18.7472 2.26678 18.7504C2.01043 18.7536 1.75791 18.6879 1.53561 18.5602C1.29441 18.4197 1.09468 18.2179 0.956696 17.9753C0.818714 17.7327 0.747396 17.4579 0.749989 17.1788V6.81939C0.747265 6.5402 0.818523 6.26527 0.956514 6.02255C1.09451 5.77983 1.29431 5.57797 1.53561 5.43752C1.75791 5.30979 2.01043 5.2441 2.26678 5.24731C2.52314 5.25053 2.77394 5.32253 2.99296 5.4558L11.4642 10.5281V6.82127C11.4612 6.54176 11.5322 6.26644 11.6703 6.02336C11.8083 5.78028 12.0083 5.57813 12.2498 5.43752C12.4721 5.30979 12.7246 5.2441 12.981 5.24731C13.2374 5.25053 13.4882 5.32253 13.7072 5.4558L22.5605 10.7527C22.7709 10.8845 22.9444 11.0677 23.0647 11.285C23.185 11.5022 23.2481 11.7465 23.2481 11.9949C23.2481 12.2432 23.185 12.4875 23.0647 12.7048C22.9444 12.9221 22.7709 13.1052 22.5605 13.237V13.2436Z" fill="#CCCCCC"/>
</svg>
