<svg width="22" height="20" viewBox="0 0 22 20" fill="none" xmlns="http://www.w3.org/2000/svg">
<path d="M1.81656 12.0024C1.27184 11.0242 1 10.5341 1 9.99964C1 9.46522 1.27184 8.97611 1.81656 7.99789L3.2046 5.49982L4.67296 3.04809C5.24857 2.08737 5.53586 1.6065 5.9982 1.33877C6.46157 1.07208 7.0207 1.06384 8.13999 1.04531L10.9995 1L13.8569 1.04531C14.9772 1.06384 15.5364 1.07208 15.9987 1.3398C16.4611 1.60753 16.7504 2.08737 17.325 3.04809L18.7944 5.49982L20.1845 7.99789C20.7282 8.97611 21 9.46522 21 9.99964C21 10.5341 20.7282 11.0232 20.1834 12.0014L18.7944 14.4995L17.326 16.9512C16.7504 17.9119 16.4631 18.3928 16.0008 18.6605C15.5374 18.9272 14.9783 18.9354 13.859 18.954L10.9995 18.9993L8.14205 18.954C7.02173 18.9354 6.4626 18.9272 6.00026 18.6595C5.53792 18.3918 5.24857 17.9119 4.67399 16.9512L3.2046 14.4995L1.81656 12.0024Z" stroke="#CCCCCC" stroke-width="2"/>
<path d="M10.9995 13.0888C12.7056 13.0888 14.0886 11.7057 14.0886 9.99964C14.0886 8.29356 12.7056 6.91052 10.9995 6.91052C9.29341 6.91052 7.91036 8.29356 7.91036 9.99964C7.91036 11.7057 9.29341 13.0888 10.9995 13.0888Z" stroke="#CCCCCC" stroke-width="2"/>
</svg>