<svg width="20" height="19" viewBox="0 0 20 19" fill="none" xmlns="http://www.w3.org/2000/svg">
<path fill-rule="evenodd" clip-rule="evenodd" d="M17.2727 1.81818H2.72727C2.48617 1.81818 2.25494 1.91396 2.08445 2.08445C1.91396 2.25494 1.81818 2.48617 1.81818 2.72727V15.4545C1.81818 15.6957 1.91396 15.9269 2.08445 16.0974C2.25494 16.2679 2.48617 16.3636 2.72727 16.3636H17.2727C17.5138 16.3636 17.7451 16.2679 17.9156 16.0974C18.086 15.9269 18.1818 15.6957 18.1818 15.4545V2.72727C18.1818 2.48617 18.086 2.25494 17.9156 2.08445C17.7451 1.91396 17.5138 1.81818 17.2727 1.81818ZM2.72727 0C2.00396 0 1.31026 0.287337 0.7988 0.7988C0.287337 1.31026 0 2.00395 0 2.72727V15.4545C0 16.1779 0.287337 16.8716 0.7988 17.383C1.31026 17.8945 2.00396 18.1818 2.72727 18.1818H17.2727C17.996 18.1818 18.6897 17.8945 19.2012 17.383C19.7127 16.8716 20 16.1779 20 15.4545V2.72727C20 2.00395 19.7127 1.31026 19.2012 0.7988C18.6897 0.287337 17.996 0 17.2727 0H2.72727ZM4.54545 4.54545H6.36364V6.36364H4.54545V4.54545ZM9.09091 4.54545C8.8498 4.54545 8.61857 4.64123 8.44809 4.81172C8.2776 4.98221 8.18182 5.21344 8.18182 5.45455C8.18182 5.69565 8.2776 5.92688 8.44809 6.09737C8.61857 6.26786 8.8498 6.36364 9.09091 6.36364H14.5455C14.7866 6.36364 15.0178 6.26786 15.1883 6.09737C15.3588 5.92688 15.4545 5.69565 15.4545 5.45455C15.4545 5.21344 15.3588 4.98221 15.1883 4.81172C15.0178 4.64123 14.7866 4.54545 14.5455 4.54545H9.09091ZM6.36364 8.18182H4.54545V10H6.36364V8.18182ZM8.18182 9.09091C8.18182 8.8498 8.2776 8.61857 8.44809 8.44808C8.61857 8.2776 8.8498 8.18182 9.09091 8.18182H14.5455C14.7866 8.18182 15.0178 8.2776 15.1883 8.44808C15.3588 8.61857 15.4545 8.8498 15.4545 9.09091C15.4545 9.33201 15.3588 9.56325 15.1883 9.73373C15.0178 9.90422 14.7866 10 14.5455 10H9.09091C8.8498 10 8.61857 9.90422 8.44809 9.73373C8.2776 9.56325 8.18182 9.33201 8.18182 9.09091ZM6.36364 11.8182H4.54545V13.6364H6.36364V11.8182ZM8.18182 12.7273C8.18182 12.4862 8.2776 12.2549 8.44809 12.0844C8.61857 11.914 8.8498 11.8182 9.09091 11.8182H14.5455C14.7866 11.8182 15.0178 11.914 15.1883 12.0844C15.3588 12.2549 15.4545 12.4862 15.4545 12.7273C15.4545 12.9684 15.3588 13.1996 15.1883 13.3701C15.0178 13.5406 14.7866 13.6364 14.5455 13.6364H9.09091C8.8498 13.6364 8.61857 13.5406 8.44809 13.3701C8.2776 13.1996 8.18182 12.9684 8.18182 12.7273Z" fill="#C9CCCF"/>
</svg>
