<svg width="20" height="20" viewBox="0 0 20 20" fill="none" xmlns="http://www.w3.org/2000/svg">
<path d="M20 2.10449V14.5467C19.9998 15.4735 19.6938 16.3744 19.1294 17.1096C18.565 17.8448 17.7738 18.3733 16.8785 18.613C15.9832 18.8528 15.0338 18.7904 14.1776 18.4356C13.3213 18.0808 12.6061 17.4533 12.1428 16.6506C11.6794 15.8479 11.4939 14.9147 11.6149 13.9958C11.736 13.0769 12.1569 12.2236 12.8123 11.5683C13.4677 10.9129 14.321 10.4921 15.24 10.3712C16.1589 10.2502 17.092 10.4359 17.8947 10.8993V6.3161L7.36832 8.0698V15.5993C7.36832 15.6625 7.36306 15.7235 7.35253 15.7825C7.4281 16.5919 7.23382 17.4037 6.79995 18.0912C6.36607 18.7787 5.71698 19.3034 4.9538 19.5836C4.19061 19.8637 3.3562 19.8836 2.58056 19.64C1.80492 19.3965 1.13161 18.9032 0.665545 18.2371C0.199476 17.571 -0.0331821 16.7694 0.00381975 15.9573C0.0408216 15.1452 0.345405 14.3681 0.870116 13.7471C1.39483 13.1261 2.1102 12.6961 2.90477 12.5241C3.69934 12.3521 4.52849 12.4478 5.26304 12.7962V3.85924C5.26298 3.36088 5.43971 2.87865 5.7618 2.49836C6.08388 2.11806 6.53043 1.86436 7.022 1.78238L17.5484 0.0286801C17.8499 -0.0216085 18.1588 -0.00562295 18.4536 0.0755255C18.7483 0.156674 19.0218 0.301038 19.2551 0.498583C19.4884 0.696128 19.6759 0.942114 19.8046 1.21944C19.9332 1.49677 19.9999 1.79878 20 2.10449ZM3.68408 14.5467C3.26531 14.5467 2.8637 14.713 2.56759 15.0092C2.27147 15.3053 2.10512 15.7069 2.10512 16.1257C2.10512 16.5444 2.27147 16.946 2.56759 17.2421C2.8637 17.5383 3.26531 17.7046 3.68408 17.7046C4.10285 17.7046 4.50446 17.5383 4.80057 17.2421C5.09669 16.946 5.26304 16.5444 5.26304 16.1257C5.26304 15.7069 5.09669 15.3053 4.80057 15.0092C4.50446 14.713 4.10285 14.5467 3.68408 14.5467ZM15.7894 12.4414C15.2311 12.4414 14.6956 12.6632 14.3008 13.058C13.906 13.4529 13.6842 13.9883 13.6842 14.5467C13.6842 15.105 13.906 15.6405 14.3008 16.0354C14.6956 16.4302 15.2311 16.652 15.7894 16.652C16.3478 16.652 16.8833 16.4302 17.2781 16.0354C17.6729 15.6405 17.8947 15.105 17.8947 14.5467C17.8947 13.9883 17.6729 13.4529 17.2781 13.058C16.8833 12.6632 16.3478 12.4414 15.7894 12.4414ZM17.8947 2.10449L7.36832 3.85924V5.9361L17.8947 4.18135V2.10449Z" fill="#C9CCCF"/>
</svg>
