<svg width="20" height="14" viewBox="0 0 20 14" fill="none" xmlns="http://www.w3.org/2000/svg">
<path d="M2.46428 4.44335C2.46419 3.70695 2.64714 2.98208 2.99669 2.33393C3.34624 1.68578 3.85141 1.13468 4.46678 0.7302C5.08214 0.325719 5.7884 0.0805408 6.52203 0.0167184C7.25566 -0.0471039 7.99364 0.0724309 8.66961 0.364572C9.34558 0.656712 9.93833 1.1123 10.3946 1.69035C10.8508 2.2684 11.1562 2.95079 11.2832 3.67614C11.4103 4.40149 11.3551 5.14705 11.1225 5.84577C10.89 6.54448 10.4874 7.17444 9.95103 7.67898C10.9624 8.16996 11.8404 8.89749 12.5108 9.79992C13.1812 10.7023 13.6242 11.7531 13.8023 12.8631C13.8219 12.9866 13.817 13.1128 13.7878 13.2344C13.7586 13.356 13.7058 13.4707 13.6323 13.5719C13.5588 13.6731 13.4661 13.7588 13.3595 13.8242C13.2528 13.8895 13.1344 13.9333 13.0109 13.9528C12.8873 13.9724 12.7612 13.9675 12.6395 13.9383C12.5179 13.9092 12.4033 13.8563 12.3021 13.7828C12.2009 13.7093 12.1151 13.6166 12.0498 13.51C11.9844 13.4034 11.9407 13.2849 11.9211 13.1614C11.7307 11.9686 11.1213 10.8827 10.2023 10.0988C9.28335 9.31485 8.115 8.88422 6.90708 8.88422C5.69916 8.88422 4.53081 9.31485 3.61183 10.0988C2.69285 10.8827 2.08345 11.9686 1.89306 13.1614C1.87339 13.2849 1.82958 13.4034 1.76414 13.5099C1.6987 13.6165 1.6129 13.7092 1.51165 13.7826C1.4104 13.8561 1.29567 13.9088 1.17403 13.9379C1.05238 13.967 0.926192 13.9719 0.80267 13.9522C0.679148 13.9325 0.56071 13.8887 0.454118 13.8233C0.347526 13.7579 0.254868 13.6721 0.181434 13.5708C0.107999 13.4696 0.0552272 13.3548 0.0261303 13.2332C-0.00296664 13.1115 -0.00781854 12.9853 0.0118516 12.8618C0.189275 11.7519 0.632059 10.7012 1.30257 9.79912C1.97308 8.89701 2.85148 8.17012 3.86313 7.68025C3.42139 7.26475 3.06939 6.76321 2.82881 6.20652C2.58824 5.64984 2.46418 5.04979 2.46428 4.44335ZM13.8886 2.53929C14.6261 2.53981 15.3477 2.7544 15.9656 3.15703C16.5835 3.55966 17.0713 4.133 17.3697 4.80747C17.668 5.48193 17.7642 6.22851 17.6465 6.95658C17.5288 7.68465 17.2023 8.3629 16.7066 8.909C17.4797 9.29197 18.1666 9.82853 18.7253 10.4859C19.284 11.1433 19.7029 11.9077 19.9562 12.7323C20.0065 12.8924 20.0136 13.0629 19.9767 13.2265C19.9399 13.3902 19.8604 13.5412 19.7463 13.6641C19.6322 13.7871 19.4876 13.8777 19.3271 13.9268C19.1667 13.9758 18.9962 13.9815 18.8328 13.9433C18.6695 13.9056 18.5191 13.8253 18.3967 13.7108C18.2743 13.5962 18.1844 13.4513 18.1359 13.2909C17.9081 12.5551 17.4934 11.8909 16.9323 11.3632C16.3713 10.8355 15.6829 10.4623 14.9346 10.2799C14.7267 10.2297 14.5418 10.111 14.4096 9.94293C14.2774 9.77483 14.2057 9.56712 14.206 9.35328V8.90646C14.2059 8.72921 14.2552 8.55546 14.3485 8.40475C14.4418 8.25405 14.5753 8.13238 14.734 8.05344C15.1189 7.86272 15.4279 7.5475 15.611 7.15898C15.794 6.77045 15.8404 6.33145 15.7424 5.91326C15.6445 5.49508 15.4081 5.1223 15.0715 4.85545C14.735 4.5886 14.3181 4.44337 13.8886 4.44335C13.6361 4.44335 13.394 4.34305 13.2154 4.16451C13.0369 3.98597 12.9366 3.74381 12.9366 3.49132C12.9366 3.23883 13.0369 2.99667 13.2154 2.81813C13.394 2.63959 13.6361 2.53929 13.8886 2.53929ZM6.90708 1.90461C6.569 1.89696 6.23279 1.95694 5.91821 2.08101C5.60362 2.20509 5.317 2.39076 5.07516 2.62714C4.83332 2.86351 4.64114 3.14582 4.5099 3.45748C4.37867 3.76915 4.31103 4.1039 4.31094 4.44207C4.31086 4.78024 4.37833 5.11501 4.50941 5.42675C4.64049 5.73848 4.83253 6.02088 5.07425 6.25738C5.31597 6.49387 5.6025 6.67969 5.91703 6.80392C6.23155 6.92816 6.56772 6.9883 6.90581 6.98082C7.56914 6.96616 8.20036 6.69239 8.66436 6.21814C9.12836 5.74388 9.38826 5.10682 9.38843 4.44334C9.38859 3.77985 9.12901 3.14266 8.66525 2.66817C8.20148 2.19369 7.5704 1.91961 6.90708 1.90461Z" fill="#C9CCCF"/>
</svg>
